<?xml version="1.0" encoding="utf-8"?>
<!-- Generator: Adobe Illustrator 19.1.0, SVG Export Plug-In . SVG Version: 6.00 Build 0)  -->

<svg version="1.1" id="Layer_1" xmlns="http://www.w3.org/2000/svg" xmlns:xlink="http://www.w3.org/1999/xlink" x="0px" y="0px"
	 viewBox="0 0 100 100" style="enable-background:new 0 0 100 100;" xml:space="preserve">

 <g>
  <rect fill="none" id="canvas_background" height="102" width="102" y="-1" x="-1"/>
 </g>
 <g>
  <title>Layer 1</title>
  <ellipse stroke="null" ry="49" rx="48" id="svg_2" cy="50.13043" cx="50.5" fill-opacity="null" stroke-opacity="null" stroke-width="null" fill="#786fc1"/>
  <path stroke="null" fill="#ffffff" id="svg_1" d="m53.15,67.65001c0,-0.45001 0,-0.75001 -0.15,-1.20001c-0.15,-0.29999 -0.15,-0.75 -0.3,-1.04999c-0.15001,-0.3 -0.3,-0.60001 -0.45,-1.05001c-0.3,-0.3 -0.45,-0.6 -0.6,-0.9c-0.15,-0.3 -0.45,-0.45 -0.75,-0.9c-0.3,-0.3 -0.6,-0.6 -0.75,-0.75c-0.15,-0.15 -0.45,-0.45 -0.9,-0.75c-0.45,-0.3 -0.75,-0.6 -0.9,-0.6s-0.45,-0.3 -0.90001,-0.6c-0.45,-0.3 -0.74999,-0.60001 -0.9,-0.60001c-0.3,0 -0.75,0 -1.5,0c-1.05,0 -2.1,0 -3,0.15001c-1.05,0.15 -2.1,0.3 -3.15,0.75c-1.05,0.3 -1.95,0.75 -2.85,1.34999s-1.5,1.20001 -1.95,2.1c-0.45,0.89999 -0.75,1.95 -0.75,3.15c0,1.35 0.3,2.55 1.05,3.45c0.75,1.05 1.65,1.8 2.7,2.40001s2.25,1.05 3.45,1.34999s2.4,0.45 3.6,0.45c1.2,0 2.25,-0.15 3.3,-0.3c1.05,-0.30001 1.95,-0.60001 2.85,-1.2c0.90001,-0.45 1.65,-1.2 2.1,-2.1c0.45,-0.89999 0.75,-1.95 0.75,-3.14999zm-3.45,-24.90001c0,-1.2 -0.15001,-2.4 -0.45,-3.75c-0.3,-1.35 -0.75,-2.55 -1.35,-3.75c-0.6,-1.19999 -1.35,-2.25 -2.4,-3c-1.05,-0.75 -2.25,-1.2 -3.45,-1.2c-1.8,0 -3.15,0.6 -4.2,1.95c-1.05,1.35 -1.5,2.85 -1.5,4.8c0,0.9 0.14999,1.8 0.3,2.85c0.15,1.05 0.59999,1.95 1.05,3c0.45,1.05 1.04999,1.95 1.65,2.7c0.59999,0.75 1.35,1.5 2.25,1.95c0.89999,0.45 1.8,0.75 2.84999,0.75c1.8,0 3.15001,-0.6 4.05,-1.8c0.75,-1.04999 1.2,-2.54999 1.2,-4.5zm-3.75001,-13.65l12.6,0l-3.9,2.25l-3.9,0c1.35,0.9 2.4,2.1 3.15,3.6s1.2,3.14999 1.2,4.8c0,1.35 -0.15001,2.7 -0.6,3.75c-0.45,1.05 -1.05,1.95 -1.65,2.7c-0.6,0.59999 -1.2,1.34999 -1.95,1.8c-0.6,0.6 -1.2,1.2 -1.65,1.8c-0.45,0.6 -0.6,1.2 -0.6,1.95c0,0.45 0.15,1.05 0.45,1.5c0.3,0.45 0.75,0.9 1.2,1.35c0.45,0.45 1.05,0.9 1.65,1.35c0.6,0.45 1.2,1.05 1.8,1.65c0.6,0.6 1.2,1.2 1.65,1.95c0.45,0.75 0.9,1.5 1.2,2.4c0.3,0.90001 0.45,1.95 0.45,3c0,3.15 -1.34999,5.85001 -4.05,8.10001c-2.85,2.55 -6.9,3.74999 -12.15,3.74999c-1.2,0 -2.25,-0.14999 -3.45,-0.3c-1.2,-0.14999 -2.40001,-0.45 -3.45,-0.89999c-1.20001,-0.45 -2.25,-1.05 -3.15001,-1.65001c-0.9,-0.59999 -1.65,-1.5 -2.25,-2.54999c-0.45,-0.90001 -0.75,-1.95001 -0.75,-3.30001c0,-1.2 0.3,-2.4 1.05,-3.9c0.6,-1.2 1.5,-2.25 2.7,-3.15c1.2,-0.9 2.7,-1.65 4.2,-2.1c1.5,-0.45 3,-0.75 4.5,-1.05c1.35001,-0.15 2.85001,-0.3 4.35001,-0.45c-1.2,-1.65 -1.8,-3 -1.8,-4.35c0,-0.3 0,-0.45 0,-0.75c0,-0.15 0.15,-0.45 0.15,-0.6c0,-0.15 0.15001,-0.3 0.3,-0.6c0.15001,-0.3 0.15001,-0.45 0.15001,-0.6c-0.75,0.15001 -1.5,0.15001 -1.95,0.15001c-2.84999,0 -5.24999,-0.90001 -7.34999,-2.85001c-2.1,-1.95 -3,-4.2 -3,-7.05c0,-2.7 0.9,-5.09999 2.7,-7.2c1.8,-1.95 4.05,-3.3 6.75,-3.9c1.8,-0.45 3.6,-0.6 5.4,-0.6zm29.85,7.35l0,3.75l-7.34999,0l0,7.34999l-3.75,0l0,-7.34999l-7.35,0l0,-3.75l7.35,0l0,-7.35l3.75,0l0,7.35l7.34999,0z"/>
 </g>
</svg>
