<?xml version="1.0" encoding="utf-8"?>
<!-- Generator: Adobe Illustrator 19.1.0, SVG Export Plug-In . SVG Version: 6.00 Build 0)  -->

<svg id="Layer_1" xmlns="http://www.w3.org/2000/svg" x="0px" y="0px"
	 viewBox="0 0 100 100" style="enable-background:new 0 0 32 32;" xml:space="preserve">
 <g>
  <rect fill="none" id="canvas_background" height="102" width="102" y="-1" x="-1"/>
 </g>

 <g>
  <ellipse stroke="null" ry="48.40934" rx="47.83305" id="svg_2" cy="49.55218" cx="49.83332" stroke-opacity="null" stroke-width="null" fill="#786fc1"/>
  <path stroke="null" fill="#ffffff" id="svg_1" d="m76.07658,34.55478c-1.93811,0.80764 -3.87619,1.45359 -6.13714,1.615c2.26095,-1.29188 3.87618,-3.39158 4.68359,-5.81417c-2.09952,1.29206 -4.36047,2.09958 -6.78307,2.5841c-1.77666,-2.09956 -4.68378,-3.39166 -7.59096,-3.39166c-5.81405,0 -10.65929,4.68363 -10.65929,10.65933c0,0.8076 0.16141,1.61524 0.32286,2.42262c-8.88285,-0.48455 -16.63506,-4.68354 -21.96477,-11.14387c-0.96907,1.61504 -1.45355,3.39172 -1.45355,5.32981c0,3.71452 1.93807,6.94477 4.68366,8.88285c-1.77657,0 -3.39162,-0.48455 -4.84519,-1.29212c0,0 0,0.16141 0,0.16141c0,5.16835 3.71466,9.36737 8.55985,10.33641c-0.96907,0.16167 -1.77659,0.32314 -2.74564,0.32314c-0.64602,0 -1.29204,0 -1.93807,-0.16143c1.29204,4.19906 5.32973,7.26758 9.85177,7.42929c-3.55307,2.90688 -8.23673,4.52212 -13.24343,4.52212c-0.80752,0 -1.77656,0 -2.58408,-0.16165c4.6837,3.06882 10.33637,4.84523 16.31202,4.84523c19.54237,0 30.20186,-16.15071 30.20186,-30.20168c0,-0.48452 0,-0.96905 0,-1.29212c2.09953,-1.615 3.87595,-3.55307 5.32954,-5.65259l0.00004,0z"/>
 </g>
</svg>
